<svg width="208" height="208" viewBox="0 0 208 208" fill="none" xmlns="http://www.w3.org/2000/svg">
<path d="M48.1 152.75C57.2 146.972 66.1917 142.603 75.075 139.642C83.9583 136.681 93.6 135.2 104 135.2C114.4 135.2 124.078 136.681 133.033 139.642C141.989 142.603 151.017 146.972 160.117 152.75C166.472 144.95 170.986 137.078 173.658 129.133C176.331 121.189 177.667 112.811 177.667 104C177.667 83.0556 170.625 65.5417 156.542 51.4583C142.458 37.375 124.944 30.3333 104 30.3333C83.0556 30.3333 65.5417 37.375 51.4583 51.4583C37.375 65.5417 30.3333 83.0556 30.3333 104C30.3333 112.811 31.7056 121.189 34.45 129.133C37.1945 137.078 41.7445 144.95 48.1 152.75ZM104 110.5C95.6222 110.5 88.5806 107.647 82.875 101.942C77.1694 96.2361 74.3167 89.1945 74.3167 80.8167C74.3167 72.4389 77.1694 65.3972 82.875 59.6917C88.5806 53.9861 95.6222 51.1333 104 51.1333C112.378 51.1333 119.419 53.9861 125.125 59.6917C130.831 65.3972 133.683 72.4389 133.683 80.8167C133.683 89.1945 130.831 96.2361 125.125 101.942C119.419 107.647 112.378 110.5 104 110.5ZM104 190.667C91.8667 190.667 80.5278 188.392 69.9833 183.842C59.4389 179.292 50.2667 173.081 42.4667 165.208C34.6667 157.336 28.5278 148.128 24.05 137.583C19.5722 127.039 17.3333 115.772 17.3333 103.783C17.3333 91.9389 19.6083 80.7445 24.1583 70.2C28.7083 59.6556 34.9195 50.4833 42.7917 42.6833C50.6639 34.8833 59.8722 28.7083 70.4167 24.1583C80.9611 19.6083 92.2278 17.3333 104.217 17.3333C116.061 17.3333 127.256 19.6083 137.8 24.1583C148.344 28.7083 157.517 34.8833 165.317 42.6833C173.117 50.4833 179.292 59.6556 183.842 70.2C188.392 80.7445 190.667 92.0111 190.667 104C190.667 115.844 188.392 127.039 183.842 137.583C179.292 148.128 173.117 157.336 165.317 165.208C157.517 173.081 148.344 179.292 137.8 183.842C127.256 188.392 115.989 190.667 104 190.667Z" fill="#E6381F"/>
</svg>
